<svg width="40" height="40" viewBox="0 0 40 40" fill="none" xmlns="http://www.w3.org/2000/svg">
<g clip-path="url(#clip0_29_519)">
<path d="M15 1.25C15 0.918479 15.1317 0.600537 15.3661 0.366117C15.6005 0.131696 15.9184 0 16.25 0L23.75 0C24.0815 0 24.3994 0.131696 24.6338 0.366117C24.8683 0.600537 25 0.918479 25 1.25C25 1.58152 24.8683 1.89946 24.6338 2.13388C24.3994 2.3683 24.0815 2.5 23.75 2.5H22.5V5.175C25.9045 5.66644 29.0887 7.15017 31.6548 9.44084C34.221 11.7315 36.0552 14.7275 36.9285 18.0546C37.8018 21.3817 37.6753 24.8924 36.5648 28.1481C35.4544 31.4037 33.4093 34.2599 30.685 36.36L32.1875 37.865C32.4222 38.0994 32.5542 38.4174 32.5544 38.7491C32.5546 39.0808 32.4231 39.399 32.1887 39.6338C31.9543 39.8685 31.6363 40.0005 31.3046 40.0007C30.9729 40.0009 30.6547 39.8694 30.42 39.635L28.555 37.77C25.9424 39.2364 22.9959 40.0045 20 40C17.004 40.0045 14.0575 39.2364 11.445 37.77L9.57996 39.635C9.46374 39.7511 9.3258 39.8431 9.17401 39.9058C9.02223 39.9686 8.85957 40.0008 8.69532 40.0007C8.53108 40.0006 8.36847 39.9681 8.21677 39.9052C8.06507 39.8422 7.92726 39.75 7.81121 39.6338C7.69515 39.5175 7.60312 39.3796 7.54038 39.2278C7.47763 39.076 7.4454 38.9134 7.44551 38.7491C7.44575 38.4174 7.57774 38.0994 7.81246 37.865L9.31746 36.36C6.59318 34.2601 4.54802 31.4041 3.43747 28.1486C2.32692 24.8932 2.20022 21.3826 3.07319 18.0556C3.94616 14.7286 5.78009 11.7325 8.3459 9.44168C10.9117 7.15085 14.0956 5.66683 17.5 5.175V2.5H16.25C15.9184 2.5 15.6005 2.3683 15.3661 2.13388C15.1317 1.89946 15 1.58152 15 1.25ZM21.25 13.75C21.25 13.4185 21.1183 13.1005 20.8838 12.8661C20.6494 12.6317 20.3315 12.5 20 12.5C19.6684 12.5 19.3505 12.6317 19.1161 12.8661C18.8817 13.1005 18.75 13.4185 18.75 13.75V22.155L15.1775 28.105C15.0067 28.3894 14.956 28.7301 15.0364 29.0519C15.1168 29.3738 15.3218 29.6505 15.6062 29.8213C15.8907 29.992 16.2313 30.0427 16.5531 29.9623C16.875 29.8819 17.1517 29.6769 17.3225 29.3925L21.0725 23.1425C21.1887 22.9483 21.25 22.7263 21.25 22.5V13.75ZM2.14996 13.4675C1.50311 12.9048 0.978932 12.2151 0.61003 11.4412C0.241128 10.6673 0.0353875 9.8258 0.00560392 8.969C-0.0241796 8.11219 0.12263 7.25842 0.436904 6.46078C0.751178 5.66313 1.22619 4.93867 1.83241 4.33246C2.43863 3.72624 3.16309 3.25122 3.96074 2.93695C4.75838 2.62267 5.61215 2.47586 6.46896 2.50565C7.32576 2.53543 8.16728 2.74117 8.94118 3.11007C9.71507 3.47897 10.4048 4.00315 10.9675 4.65C7.16733 6.57937 4.07932 9.66737 2.14996 13.4675ZM29.0325 4.65C29.5951 4.00315 30.2848 3.47897 31.0587 3.11007C31.8326 2.74117 32.6742 2.53543 33.531 2.50565C34.3878 2.47586 35.2415 2.62267 36.0392 2.93695C36.8368 3.25122 37.5613 3.72624 38.1675 4.33246C38.7737 4.93867 39.2487 5.66313 39.563 6.46078C39.8773 7.25842 40.0241 8.11219 39.9943 8.969C39.9645 9.8258 39.7588 10.6673 39.3899 11.4412C39.021 12.2151 38.4968 12.9048 37.85 13.4675C35.9206 9.66737 32.8326 6.57937 29.0325 4.65Z" fill="#323641"/>
</g>
<defs>
<clipPath id="clip0_29_519">
<rect width="40" height="40" fill="white"/>
</clipPath>
</defs>
</svg>
