<svg width="401" height="118" viewBox="0 0 401 118" fill="none" xmlns="http://www.w3.org/2000/svg">
<path d="M168.446 51C165.809 50.9693 163.432 50.54 161.316 49.712C159.2 48.884 157.406 47.7493 155.934 46.308C154.462 44.8667 153.327 43.18 152.53 41.248C151.733 39.2853 151.334 37.1693 151.334 34.9C151.334 32.6307 151.733 30.53 152.53 28.598C153.327 26.6353 154.462 24.9333 155.934 23.492C157.437 22.0507 159.231 20.916 161.316 20.088C163.432 19.26 165.809 18.8307 168.446 18.8H173.414V25.24H168.63C167.189 25.2707 165.87 25.5313 164.674 26.022C163.509 26.5127 162.497 27.1873 161.638 28.046C160.81 28.9047 160.166 29.9167 159.706 31.082C159.277 32.2473 159.062 33.52 159.062 34.9C159.062 36.28 159.277 37.5527 159.706 38.718C160.166 39.8833 160.81 40.8953 161.638 41.754C162.497 42.6127 163.509 43.2873 164.674 43.778C165.87 44.2687 167.189 44.5293 168.63 44.56H173.414V51H168.446ZM189.329 51.552C186.906 51.552 184.729 51.0153 182.797 49.942C180.865 48.8687 179.331 47.3967 178.197 45.526C177.093 43.6553 176.541 41.5547 176.541 39.224C176.541 36.8627 177.093 34.762 178.197 32.922C179.331 31.0513 180.865 29.5793 182.797 28.506C184.729 27.402 186.906 26.85 189.329 26.85C191.751 26.85 193.913 27.402 195.815 28.506C197.747 29.5793 199.265 31.0513 200.369 32.922C201.503 34.762 202.071 36.8627 202.071 39.224C202.071 41.5547 201.503 43.6553 200.369 45.526C199.265 47.3967 197.747 48.8687 195.815 49.942C193.883 51.0153 191.721 51.552 189.329 51.552ZM189.329 45.342C190.463 45.342 191.445 45.066 192.273 44.514C193.101 43.962 193.745 43.226 194.205 42.306C194.665 41.386 194.895 40.3433 194.895 39.178C194.895 38.0433 194.665 37.016 194.205 36.096C193.745 35.176 193.101 34.44 192.273 33.888C191.445 33.336 190.463 33.06 189.329 33.06C188.194 33.06 187.197 33.336 186.339 33.888C185.511 34.44 184.867 35.176 184.407 36.096C183.947 37.016 183.717 38.0433 183.717 39.178C183.717 40.3433 183.947 41.386 184.407 42.306C184.867 43.226 185.511 43.962 186.339 44.514C187.197 45.066 188.194 45.342 189.329 45.342ZM217.851 51.552C215.888 51.552 214.109 51.2453 212.515 50.632C210.951 50.0187 209.632 49.1447 208.559 48.01C207.485 46.8447 206.657 45.48 206.075 43.916C205.492 42.352 205.201 40.65 205.201 38.81C205.201 36.418 205.676 34.3327 206.627 32.554C207.608 30.7753 208.942 29.38 210.629 28.368C212.346 27.356 214.309 26.85 216.517 26.85C217.467 26.85 218.357 26.9727 219.185 27.218C220.043 27.4633 220.81 27.8313 221.485 28.322C222.19 28.782 222.773 29.334 223.233 29.978H223.371V17.42H230.501V38.764C230.501 41.34 229.979 43.594 228.937 45.526C227.894 47.458 226.422 48.9453 224.521 49.988C222.65 51.0307 220.427 51.552 217.851 51.552ZM217.851 45.388C218.955 45.388 219.905 45.1273 220.703 44.606C221.531 44.054 222.159 43.318 222.589 42.398C223.018 41.4473 223.233 40.3893 223.233 39.224C223.233 38.0587 223.018 37.016 222.589 36.096C222.159 35.176 221.531 34.4553 220.703 33.934C219.905 33.382 218.955 33.106 217.851 33.106C216.777 33.106 215.827 33.382 214.999 33.934C214.171 34.4553 213.542 35.176 213.113 36.096C212.683 37.016 212.469 38.0587 212.469 39.224C212.469 40.3893 212.683 41.4473 213.113 42.398C213.542 43.318 214.171 44.054 214.999 44.606C215.827 45.1273 216.777 45.388 217.851 45.388ZM247.967 51C245.299 51 242.953 50.5093 240.929 49.528C238.905 48.516 237.325 47.136 236.191 45.388C235.087 43.6093 234.535 41.5547 234.535 39.224C234.535 36.648 235.071 34.44 236.145 32.6C237.218 30.76 238.644 29.3493 240.423 28.368C242.232 27.356 244.225 26.85 246.403 26.85C248.887 26.85 250.957 27.3713 252.613 28.414C254.299 29.4567 255.572 30.8827 256.431 32.692C257.289 34.4707 257.719 36.51 257.719 38.81C257.719 39.2087 257.688 39.684 257.627 40.236C257.596 40.7573 257.55 41.1713 257.489 41.478H242.033C242.217 42.2753 242.569 42.95 243.091 43.502C243.612 44.054 244.271 44.468 245.069 44.744C245.866 44.9893 246.755 45.112 247.737 45.112H254.959V51H247.967ZM241.849 37.016H250.819C250.757 36.5253 250.665 36.05 250.543 35.59C250.42 35.13 250.221 34.7313 249.945 34.394C249.699 34.026 249.408 33.7193 249.071 33.474C248.733 33.198 248.335 32.9833 247.875 32.83C247.445 32.6767 246.955 32.6 246.403 32.6C245.697 32.6 245.069 32.7227 244.517 32.968C243.965 33.2133 243.505 33.5507 243.137 33.98C242.769 34.3787 242.477 34.854 242.263 35.406C242.079 35.9273 241.941 36.464 241.849 37.016ZM285.731 51.552C283.308 51.552 281.131 51.0153 279.199 49.942C277.267 48.8687 275.734 47.3967 274.599 45.526C273.495 43.6553 272.943 41.5547 272.943 39.224C272.943 36.8627 273.495 34.762 274.599 32.922C275.734 31.0513 277.267 29.5793 279.199 28.506C281.131 27.402 283.308 26.85 285.731 26.85C288.154 26.85 290.316 27.402 292.217 28.506C294.149 29.5793 295.667 31.0513 296.771 32.922C297.906 34.762 298.473 36.8627 298.473 39.224C298.473 41.5547 297.906 43.6553 296.771 45.526C295.667 47.3967 294.149 48.8687 292.217 49.942C290.285 51.0153 288.123 51.552 285.731 51.552ZM285.731 45.342C286.866 45.342 287.847 45.066 288.675 44.514C289.503 43.962 290.147 43.226 290.607 42.306C291.067 41.386 291.297 40.3433 291.297 39.178C291.297 38.0433 291.067 37.016 290.607 36.096C290.147 35.176 289.503 34.44 288.675 33.888C287.847 33.336 286.866 33.06 285.731 33.06C284.596 33.06 283.6 33.336 282.741 33.888C281.913 34.44 281.269 35.176 280.809 36.096C280.349 37.016 280.119 38.0433 280.119 39.178C280.119 40.3433 280.349 41.386 280.809 42.306C281.269 43.226 281.913 43.962 282.741 44.514C283.6 45.066 284.596 45.342 285.731 45.342ZM304.501 51V33.244H300.545V27.402H304.501V24.32C304.501 22.1733 305.114 20.4867 306.341 19.26C307.568 18.0333 309.254 17.42 311.401 17.42H318.577V23.262H312.965C312.597 23.262 312.275 23.4 311.999 23.676C311.754 23.9213 311.631 24.228 311.631 24.596V27.402H317.565V33.244H311.631V51H304.501ZM168.446 99C165.809 98.9693 163.432 98.54 161.316 97.712C159.2 96.884 157.406 95.7493 155.934 94.308C154.462 92.8667 153.327 91.18 152.53 89.248C151.733 87.2853 151.334 85.1693 151.334 82.9C151.334 80.6307 151.733 78.53 152.53 76.598C153.327 74.6353 154.462 72.9333 155.934 71.492C157.437 70.0507 159.231 68.916 161.316 68.088C163.432 67.26 165.809 66.8307 168.446 66.8H173.414V73.24H168.63C167.189 73.2707 165.87 73.5313 164.674 74.022C163.509 74.5127 162.497 75.1873 161.638 76.046C160.81 76.9047 160.166 77.9167 159.706 79.082C159.277 80.2473 159.062 81.52 159.062 82.9C159.062 84.28 159.277 85.5527 159.706 86.718C160.166 87.8833 160.81 88.8953 161.638 89.754C162.497 90.6127 163.509 91.2873 164.674 91.778C165.87 92.2687 167.189 92.5293 168.63 92.56H173.414V99H168.446ZM177.645 99V65.42H184.775V76.966C185.695 76.23 186.707 75.6933 187.811 75.356C188.915 75.0187 190.019 74.85 191.123 74.85C193.269 74.85 195.079 75.31 196.551 76.23C198.053 77.15 199.173 78.4073 199.909 80.002C200.675 81.5967 201.059 83.406 201.059 85.43V99H193.929V85.706C193.929 84.8167 193.714 84.0347 193.285 83.36C192.886 82.6547 192.334 82.1027 191.629 81.704C190.954 81.2747 190.203 81.06 189.375 81.06C188.547 81.06 187.78 81.2593 187.075 81.658C186.369 82.0567 185.802 82.5933 185.373 83.268C184.974 83.9427 184.775 84.7093 184.775 85.568V99H177.645ZM215.871 99.552C213.785 99.552 211.945 99.0153 210.351 97.942C208.756 96.8687 207.514 95.4273 206.625 93.618C205.735 91.778 205.291 89.708 205.291 87.408C205.291 85.016 205.812 82.8847 206.855 81.014C207.897 79.1127 209.369 77.61 211.271 76.506C213.203 75.402 215.472 74.85 218.079 74.85C220.716 74.85 222.955 75.402 224.795 76.506C226.665 77.5793 228.091 79.0667 229.073 80.968C230.085 82.8387 230.591 84.9393 230.591 87.27V99H223.599V95.228H223.415C222.985 96.056 222.433 96.8073 221.759 97.482C221.084 98.126 220.256 98.632 219.275 99C218.324 99.368 217.189 99.552 215.871 99.552ZM217.987 93.388C219.06 93.388 219.995 93.1273 220.793 92.606C221.621 92.054 222.249 91.3027 222.679 90.352C223.108 89.4013 223.323 88.3433 223.323 87.178C223.323 86.0433 223.108 85.016 222.679 84.096C222.249 83.176 221.621 82.4553 220.793 81.934C219.995 81.382 219.06 81.106 217.987 81.106C216.883 81.106 215.917 81.382 215.089 81.934C214.261 82.4553 213.632 83.176 213.203 84.096C212.773 85.016 212.559 86.0433 212.559 87.178C212.559 88.3433 212.773 89.4013 213.203 90.352C213.632 91.3027 214.261 92.054 215.089 92.606C215.917 93.1273 216.883 93.388 217.987 93.388ZM235.863 99V85.062C235.863 83.13 236.308 81.3973 237.197 79.864C238.117 78.3 239.421 77.0733 241.107 76.184C242.794 75.2947 244.803 74.85 247.133 74.85C248.299 74.85 249.372 74.988 250.353 75.264C251.335 75.5093 252.224 75.862 253.021 76.322C253.849 76.7513 254.555 77.2727 255.137 77.886H255.229C255.843 77.2727 256.548 76.7513 257.345 76.322C258.173 75.862 259.078 75.5093 260.059 75.264C261.071 74.988 262.16 74.85 263.325 74.85C265.656 74.85 267.665 75.2947 269.351 76.184C271.038 77.0733 272.341 78.3 273.261 79.864C274.181 81.3973 274.641 83.13 274.641 85.062V99H267.465V85.292C267.465 84.5253 267.266 83.8353 266.867 83.222C266.499 82.578 265.993 82.0567 265.349 81.658C264.705 81.2593 263.969 81.06 263.141 81.06C262.313 81.06 261.562 81.2593 260.887 81.658C260.243 82.0567 259.737 82.578 259.369 83.222C259.001 83.8353 258.817 84.5253 258.817 85.292V99H251.687V85.292C251.687 84.5253 251.488 83.8353 251.089 83.222C250.721 82.578 250.2 82.0567 249.525 81.658C248.881 81.2593 248.145 81.06 247.317 81.06C246.489 81.06 245.738 81.2593 245.063 81.658C244.419 82.0567 243.913 82.578 243.545 83.222C243.177 83.8353 242.993 84.5253 242.993 85.292V99H235.863ZM292.398 74.85C294.391 74.85 296.154 75.172 297.688 75.816C299.252 76.4293 300.57 77.3187 301.644 78.484C302.748 79.6187 303.591 80.968 304.174 82.532C304.756 84.0653 305.048 85.7673 305.048 87.638C305.048 89.9687 304.557 92.0387 303.576 93.848C302.625 95.6267 301.306 97.022 299.62 98.034C297.933 99.046 295.97 99.552 293.732 99.552C292.781 99.552 291.876 99.4293 291.018 99.184C290.19 98.9387 289.423 98.586 288.718 98.126C288.043 97.666 287.476 97.0987 287.016 96.424H286.878V108.982H279.748V87.638C279.748 85.0313 280.269 82.7773 281.312 80.876C282.354 78.9747 283.826 77.5027 285.728 76.46C287.629 75.3867 289.852 74.85 292.398 74.85ZM292.398 81.014C291.294 81.014 290.328 81.29 289.5 81.842C288.702 82.3633 288.089 83.0993 287.66 84.05C287.23 84.97 287.016 86.0127 287.016 87.178C287.016 88.3433 287.23 89.386 287.66 90.306C288.089 91.226 288.702 91.962 289.5 92.514C290.328 93.0353 291.294 93.296 292.398 93.296C293.502 93.296 294.452 93.0353 295.25 92.514C296.047 91.962 296.66 91.226 297.09 90.306C297.55 89.386 297.78 88.3433 297.78 87.178C297.78 86.0127 297.55 84.97 297.09 84.05C296.66 83.0993 296.047 82.3633 295.25 81.842C294.452 81.29 293.502 81.014 292.398 81.014ZM309.266 99V75.402H316.442V99H309.266ZM312.854 72.734C311.719 72.734 310.738 72.32 309.91 71.492C309.082 70.664 308.668 69.6827 308.668 68.548C308.668 67.4133 309.082 66.432 309.91 65.604C310.738 64.7453 311.719 64.316 312.854 64.316C313.988 64.316 314.97 64.7453 315.798 65.604C316.626 66.432 317.04 67.4133 317.04 68.548C317.04 69.6827 316.626 70.664 315.798 71.492C314.97 72.32 313.988 72.734 312.854 72.734ZM333.348 99.552C330.925 99.552 328.748 99.0153 326.816 97.942C324.884 96.8687 323.351 95.3967 322.216 93.526C321.112 91.6553 320.56 89.5547 320.56 87.224C320.56 84.8627 321.112 82.762 322.216 80.922C323.351 79.0513 324.884 77.5793 326.816 76.506C328.748 75.402 330.925 74.85 333.348 74.85C335.771 74.85 337.933 75.402 339.834 76.506C341.766 77.5793 343.284 79.0513 344.388 80.922C345.523 82.762 346.09 84.8627 346.09 87.224C346.09 89.5547 345.523 91.6553 344.388 93.526C343.284 95.3967 341.766 96.8687 339.834 97.942C337.902 99.0153 335.74 99.552 333.348 99.552ZM333.348 93.342C334.483 93.342 335.464 93.066 336.292 92.514C337.12 91.962 337.764 91.226 338.224 90.306C338.684 89.386 338.914 88.3433 338.914 87.178C338.914 86.0433 338.684 85.016 338.224 84.096C337.764 83.176 337.12 82.44 336.292 81.888C335.464 81.336 334.483 81.06 333.348 81.06C332.213 81.06 331.217 81.336 330.358 81.888C329.53 82.44 328.886 83.176 328.426 84.096C327.966 85.016 327.736 86.0433 327.736 87.178C327.736 88.3433 327.966 89.386 328.426 90.306C328.886 91.226 329.53 91.962 330.358 92.514C331.217 93.066 332.213 93.342 333.348 93.342ZM350.324 99V85.43C350.324 83.4673 350.8 81.6887 351.75 80.094C352.701 78.4993 354.05 77.2267 355.798 76.276C357.577 75.3253 359.678 74.85 362.1 74.85C364.554 74.85 366.639 75.3253 368.356 76.276C370.104 77.2267 371.438 78.4993 372.358 80.094C373.278 81.6887 373.738 83.4673 373.738 85.43V99H366.608V85.614C366.608 84.786 366.409 84.0347 366.01 83.36C365.612 82.6547 365.06 82.1027 364.354 81.704C363.68 81.2747 362.913 81.06 362.054 81.06C361.165 81.06 360.368 81.2747 359.662 81.704C358.988 82.1027 358.451 82.6547 358.052 83.36C357.654 84.0347 357.454 84.786 357.454 85.614V99H350.324ZM379.12 99V93.342H390.482C390.789 93.342 391.065 93.2807 391.31 93.158C391.556 93.0047 391.755 92.8053 391.908 92.56C392.062 92.3147 392.138 92.054 392.138 91.778C392.138 91.4713 392.062 91.1953 391.908 90.95C391.755 90.7047 391.556 90.5207 391.31 90.398C391.065 90.2447 390.789 90.168 390.482 90.168H386.342C384.809 90.168 383.414 89.9227 382.156 89.432C380.93 88.9107 379.948 88.1133 379.212 87.04C378.507 85.936 378.154 84.51 378.154 82.762C378.154 81.4127 378.476 80.186 379.12 79.082C379.795 77.978 380.7 77.0887 381.834 76.414C383 75.7393 384.272 75.402 385.652 75.402H397.014V81.106H386.756C386.327 81.106 385.959 81.244 385.652 81.52C385.376 81.796 385.238 82.1333 385.238 82.532C385.238 82.9613 385.376 83.3293 385.652 83.636C385.959 83.912 386.327 84.05 386.756 84.05H390.804C392.522 84.05 393.994 84.3107 395.22 84.832C396.478 85.3227 397.444 86.12 398.118 87.224C398.824 88.328 399.176 89.754 399.176 91.502C399.176 92.882 398.824 94.1393 398.118 95.274C397.444 96.4087 396.524 97.3133 395.358 97.988C394.224 98.6627 392.936 99 391.494 99H379.12Z" fill="white"/>
<path d="M35 7V27.5882C35 31.4542 38.134 34.5882 42 34.5882H77.8558C81.7218 34.5882 84.8558 37.7222 84.8558 41.5882V77C84.8558 80.866 87.9898 84 91.8558 84H113C116.866 84 120 80.866 120 77V38.2957C120 36.4484 119.27 34.676 117.968 33.3648L86.9092 2.06906C85.5949 0.744804 83.8064 0 81.9407 0H42C38.134 0 35 3.134 35 7Z" fill="#5DCB81"/>
<path d="M85 111V90.4118C85 86.5458 81.866 83.4118 78 83.4118H42.1442C38.2782 83.4118 35.1442 80.2778 35.1442 76.4118V41C35.1442 37.134 32.0102 34 28.1442 34H7C3.134 34 0 37.134 0 41V79.7043C0 81.5516 0.730232 83.324 2.03152 84.6352L33.0908 115.931C34.4051 117.255 36.1936 118 38.0593 118H78C81.866 118 85 114.866 85 111Z" fill="#5DCB81"/>
<circle cx="60" cy="59" r="13" fill="#5DCB81"/>
</svg>
