<svg width="31" height="32" viewBox="0 0 31 32" fill="none" xmlns="http://www.w3.org/2000/svg">
<path d="M16 5C16.3647 5 16.7144 5.14487 16.9723 5.40273C17.2301 5.66059 17.375 6.01033 17.375 6.375V14.625H25.625C25.9897 14.625 26.3394 14.7699 26.5973 15.0277C26.8551 15.2856 27 15.6353 27 16C27 16.3647 26.8551 16.7144 26.5973 16.9723C26.3394 17.2301 25.9897 17.375 25.625 17.375H17.375V25.625C17.375 25.9897 17.2301 26.3394 16.9723 26.5973C16.7144 26.8551 16.3647 27 16 27C15.6353 27 15.2856 26.8551 15.0277 26.5973C14.7699 26.3394 14.625 25.9897 14.625 25.625V17.375H6.375C6.01033 17.375 5.66059 17.2301 5.40273 16.9723C5.14487 16.7144 5 16.3647 5 16C5 15.6353 5.14487 15.2856 5.40273 15.0277C5.66059 14.7699 6.01033 14.625 6.375 14.625H14.625V6.375C14.625 6.01033 14.7699 5.66059 15.0277 5.40273C15.2856 5.14487 15.6353 5 16 5Z" fill="#5DCB81"/>
</svg>
