<svg width="18" height="18" viewBox="0 0 22 22" fill="none" xmlns="http://www.w3.org/2000/svg">
<g clip-path="url(#clip0_201_3)">
<path d="M10.9147 2.77199C10.9417 2.75722 10.972 2.74964 11.0027 2.74999C11.033 2.74987 11.0628 2.75744 11.0893 2.77199C11.1208 2.79085 11.1465 2.81795 11.1636 2.85037L20.592 18.8925C20.6415 18.975 20.6401 19.063 20.5947 19.1441C20.5773 19.1774 20.5517 19.2058 20.5205 19.2266C20.4932 19.2433 20.4616 19.2515 20.4297 19.25H1.57571C1.54379 19.2516 1.51215 19.2434 1.48496 19.2266C1.45368 19.2058 1.42815 19.1774 1.41071 19.1441C1.38805 19.106 1.37632 19.0623 1.3768 19.0179C1.37729 18.9735 1.38997 18.9302 1.41346 18.8925L10.8405 2.85037C10.8576 2.818 10.8833 2.7909 10.9147 2.77199V2.77199ZM12.3502 2.15324C12.2141 1.91615 12.0178 1.71916 11.7812 1.58217C11.5446 1.44518 11.2761 1.37305 11.0027 1.37305C10.7293 1.37305 10.4608 1.44518 10.2242 1.58217C9.98758 1.71916 9.79132 1.91615 9.65521 2.15324L0.226831 18.1954C-0.401544 19.2651 0.351956 20.625 1.57433 20.625H20.4297C21.6521 20.625 22.407 19.2637 21.7772 18.1954L12.3502 2.15324Z" fill="#FF516B"/>
<path d="M9.62781 16.5C9.62781 16.3194 9.66337 16.1406 9.73247 15.9738C9.80157 15.807 9.90286 15.6554 10.0305 15.5277C10.1582 15.4 10.3098 15.2987 10.4766 15.2296C10.6434 15.1605 10.8222 15.125 11.0028 15.125C11.1834 15.125 11.3622 15.1605 11.529 15.2296C11.6958 15.2987 11.8474 15.4 11.9751 15.5277C12.1028 15.6554 12.204 15.807 12.2731 15.9738C12.3422 16.1406 12.3778 16.3194 12.3778 16.5C12.3778 16.8647 12.2329 17.2144 11.9751 17.4722C11.7172 17.7301 11.3675 17.875 11.0028 17.875C10.6381 17.875 10.2884 17.7301 10.0305 17.4722C9.77267 17.2144 9.62781 16.8647 9.62781 16.5V16.5ZM9.76256 8.2431C9.74425 8.06963 9.76261 7.89425 9.81646 7.72834C9.87031 7.56243 9.95843 7.40969 10.0751 7.28004C10.1918 7.15038 10.3345 7.04671 10.4938 6.97574C10.6531 6.90478 10.8256 6.8681 11.0001 6.8681C11.1745 6.8681 11.347 6.90478 11.5063 6.97574C11.6657 7.04671 11.8083 7.15038 11.925 7.28004C12.0417 7.40969 12.1298 7.56243 12.1837 7.72834C12.2375 7.89425 12.2559 8.06963 12.2376 8.2431L11.7563 13.0652C11.7401 13.2547 11.6535 13.4311 11.5134 13.5597C11.3734 13.6883 11.1902 13.7597 11.0001 13.7597C10.8099 13.7597 10.6267 13.6883 10.4867 13.5597C10.3467 13.4311 10.26 13.2547 10.2438 13.0652L9.76256 8.2431Z" fill="#FF516B"/>
</g>
<defs>
<clipPath id="clip0_201_3">
<rect width="22" height="22" fill="white"/>
</clipPath>
</defs>
</svg>
