<svg width="12" height="12" viewBox="0 0 12 12" fill="none" xmlns="http://www.w3.org/2000/svg">
<path d="M0.549737 0.549737C0.625211 0.474072 0.714872 0.414039 0.813582 0.373079C0.912293 0.332119 1.01812 0.311035 1.12499 0.311035C1.23186 0.311035 1.33768 0.332119 1.43639 0.373079C1.5351 0.414039 1.62476 0.474072 1.70024 0.549737L5.99999 4.85111L10.2997 0.549737C10.3753 0.474194 10.465 0.41427 10.5637 0.373387C10.6624 0.332503 10.7682 0.311461 10.875 0.311461C10.9818 0.311461 11.0876 0.332503 11.1863 0.373387C11.285 0.41427 11.3747 0.474194 11.4502 0.549737C11.5258 0.62528 11.5857 0.714962 11.6266 0.813664C11.6675 0.912365 11.6885 1.01815 11.6885 1.12499C11.6885 1.23182 11.6675 1.33761 11.6266 1.43631C11.5857 1.53501 11.5258 1.62469 11.4502 1.70024L7.14886 5.99999L11.4502 10.2997C11.5258 10.3753 11.5857 10.465 11.6266 10.5637C11.6675 10.6624 11.6885 10.7682 11.6885 10.875C11.6885 10.9818 11.6675 11.0876 11.6266 11.1863C11.5857 11.285 11.5258 11.3747 11.4502 11.4502C11.3747 11.5258 11.285 11.5857 11.1863 11.6266C11.0876 11.6675 10.9818 11.6885 10.875 11.6885C10.7682 11.6885 10.6624 11.6675 10.5637 11.6266C10.465 11.5857 10.3753 11.5258 10.2997 11.4502L5.99999 7.14886L1.70024 11.4502C1.62469 11.5258 1.53501 11.5857 1.43631 11.6266C1.33761 11.6675 1.23182 11.6885 1.12499 11.6885C1.01815 11.6885 0.912365 11.6675 0.813664 11.6266C0.714962 11.5857 0.62528 11.5258 0.549737 11.4502C0.474194 11.3747 0.41427 11.285 0.373387 11.1863C0.332503 11.0876 0.311461 10.9818 0.311461 10.875C0.311461 10.7682 0.332503 10.6624 0.373387 10.5637C0.41427 10.465 0.474194 10.3753 0.549737 10.2997L4.85111 5.99999L0.549737 1.70024C0.474072 1.62476 0.414039 1.5351 0.373079 1.43639C0.332119 1.33768 0.311035 1.23186 0.311035 1.12499C0.311035 1.01812 0.332119 0.912293 0.373079 0.813582C0.414039 0.714872 0.474072 0.625211 0.549737 0.549737Z" fill="#9CA1B7"/>
</svg>
