<svg width="16" height="16" viewBox="0 0 16 16" fill="none" xmlns="http://www.w3.org/2000/svg">
<g clip-path="url(#clip0_132_377)">
<path fill-rule="evenodd" clip-rule="evenodd" d="M6 12.5C6 12.6326 6.05268 12.7598 6.14645 12.8536C6.24021 12.9473 6.36739 13 6.5 13H14.5C14.6326 13 14.7598 12.9473 14.8536 12.8536C14.9473 12.7598 15 12.6326 15 12.5V3.5C15 3.36739 14.9473 3.24021 14.8536 3.14645C14.7598 3.05268 14.6326 3 14.5 3H6.5C6.36739 3 6.24021 3.05268 6.14645 3.14645C6.05268 3.24021 6 3.36739 6 3.5V5.5C6 5.63261 5.94732 5.75979 5.85355 5.85355C5.75979 5.94732 5.63261 6 5.5 6C5.36739 6 5.24021 5.94732 5.14645 5.85355C5.05268 5.75979 5 5.63261 5 5.5V3.5C5 3.10218 5.15804 2.72064 5.43934 2.43934C5.72064 2.15804 6.10218 2 6.5 2H14.5C14.8978 2 15.2794 2.15804 15.5607 2.43934C15.842 2.72064 16 3.10218 16 3.5V12.5C16 12.8978 15.842 13.2794 15.5607 13.5607C15.2794 13.842 14.8978 14 14.5 14H6.5C6.10218 14 5.72064 13.842 5.43934 13.5607C5.15804 13.2794 5 12.8978 5 12.5V10.5C5 10.3674 5.05268 10.2402 5.14645 10.1464C5.24021 10.0527 5.36739 10 5.5 10C5.63261 10 5.75979 10.0527 5.85355 10.1464C5.94732 10.2402 6 10.3674 6 10.5V12.5Z" fill="#9CA1B7"/>
<path fill-rule="evenodd" clip-rule="evenodd" d="M0.145978 8.35402C0.099415 8.30758 0.0624722 8.2524 0.0372657 8.19165C0.0120593 8.13091 -0.000915527 8.06579 -0.000915527 8.00002C-0.000915527 7.93425 0.0120593 7.86913 0.0372657 7.80839C0.0624722 7.74764 0.099415 7.69247 0.145978 7.64602L3.14598 4.64602C3.19247 4.59953 3.24766 4.56266 3.30839 4.5375C3.36913 4.51234 3.43423 4.49939 3.49998 4.49939C3.56572 4.49939 3.63082 4.51234 3.69156 4.5375C3.7523 4.56266 3.80749 4.59953 3.85398 4.64602C3.90047 4.69251 3.93734 4.7477 3.9625 4.80844C3.98766 4.86918 4.00061 4.93428 4.00061 5.00002C4.00061 5.06577 3.98766 5.13087 3.9625 5.19161C3.93734 5.25234 3.90047 5.30753 3.85398 5.35402L1.70698 7.50002H10.5C10.6326 7.50002 10.7598 7.5527 10.8535 7.64647C10.9473 7.74024 11 7.86741 11 8.00002C11 8.13263 10.9473 8.25981 10.8535 8.35358C10.7598 8.44734 10.6326 8.50002 10.5 8.50002H1.70698L3.85398 10.646C3.90047 10.6925 3.93734 10.7477 3.9625 10.8084C3.98766 10.8692 4.00061 10.9343 4.00061 11C4.00061 11.0658 3.98766 11.1309 3.9625 11.1916C3.93734 11.2523 3.90047 11.3075 3.85398 11.354C3.80749 11.4005 3.7523 11.4374 3.69156 11.4625C3.63082 11.4877 3.56572 11.5007 3.49998 11.5007C3.43423 11.5007 3.36913 11.4877 3.30839 11.4625C3.24766 11.4374 3.19247 11.4005 3.14598 11.354L0.145978 8.35402Z" fill="#9CA1B7"/>
</g>
<defs>
<clipPath id="clip0_132_377">
<rect width="16" height="16" fill="white"/>
</clipPath>
</defs>
</svg>
