<svg width="16" height="10" viewBox="0 0 16 10" fill="none" xmlns="http://www.w3.org/2000/svg">
<path d="M7.05875 8.925L1.06375 2.0725C0.356248 1.26625 0.931248 4.59632e-07 2.005 4.59632e-07H13.995C14.2353 -0.000205574 14.4706 0.0688598 14.6726 0.198926C14.8747 0.328993 15.035 0.514546 15.1343 0.733366C15.2336 0.952187 15.2678 1.195 15.2326 1.43272C15.1975 1.67045 15.0946 1.89301 14.9362 2.07375L8.94125 8.92375C8.82392 9.05801 8.67923 9.16562 8.51689 9.23935C8.35454 9.31308 8.1783 9.35123 8 9.35123C7.8217 9.35123 7.64546 9.31308 7.48311 9.23935C7.32077 9.16562 7.17608 9.05801 7.05875 8.92375V8.925Z" fill="#9CA1B7"/>
</svg>
