<svg width="18" height="18" viewBox="0 0 18 18" fill="none" xmlns="http://www.w3.org/2000/svg">
<g clip-path="url(#clip0_132_538)">
<path d="M13.2098 11.6369C14.2992 10.1504 14.7871 8.30742 14.5759 6.47666C14.3648 4.6459 13.4702 2.96237 12.0711 1.76289C10.672 0.563405 8.87156 -0.0635771 7.03003 0.00738022C5.18851 0.0783375 3.44168 0.842001 2.13902 2.14559C0.836365 3.44918 0.0739514 5.19655 0.00431182 7.03813C-0.0653277 8.87971 0.562943 10.6797 1.76343 12.0779C2.96391 13.4762 4.64808 14.3696 6.47899 14.5794C8.3099 14.7892 10.1525 14.3 11.6382 13.2096H11.6371C11.6708 13.2546 11.7068 13.2974 11.7473 13.339L16.0786 17.6702C16.2895 17.8813 16.5757 18 16.8741 18.0001C17.1726 18.0002 17.4588 17.8818 17.6699 17.6708C17.881 17.4599 17.9997 17.1737 17.9998 16.8753C17.9999 16.5768 17.8814 16.2906 17.6705 16.0795L13.3392 11.7482C13.299 11.7075 13.2557 11.6699 13.2098 11.6357V11.6369ZM13.5001 7.31237C13.5001 8.12492 13.34 8.92952 13.0291 9.68022C12.7181 10.4309 12.2624 11.113 11.6878 11.6876C11.1133 12.2622 10.4312 12.7179 9.68045 13.0289C8.92975 13.3398 8.12515 13.4999 7.31259 13.4999C6.50004 13.4999 5.69544 13.3398 4.94474 13.0289C4.19404 12.7179 3.51193 12.2622 2.93737 11.6876C2.36281 11.113 1.90704 10.4309 1.59609 9.68022C1.28514 8.92952 1.12509 8.12492 1.12509 7.31237C1.12509 5.67134 1.77699 4.09753 2.93737 2.93715C4.09775 1.77676 5.67157 1.12487 7.31259 1.12487C8.95362 1.12487 10.5274 1.77676 11.6878 2.93715C12.8482 4.09753 13.5001 5.67134 13.5001 7.31237Z" fill="#9CA1B7"/>
</g>
<defs>
<clipPath id="clip0_132_538">
<rect width="18" height="18" fill="white"/>
</clipPath>
</defs>
</svg>
